<svg xmlns="http://www.w3.org/2000/svg" viewBox="0 0 32 32" fill="white">
  <path d="M16 0C7.164 0 0 7.164 0 16c0 2.836.742 5.5 2.04 7.844L0 32l8.375-2.19A15.93 15.93 0 0016 32c8.836 0 16-7.164 16-16S24.836 0 16 0zm0 29.09c-2.664 0-5.176-.77-7.316-2.102l-.523-.316-4.973 1.3 1.328-4.844-.344-.5A13.09 13.09 0 1129.09 16 13.105 13.105 0 0116 29.09zm7.23-9.9c-.395-.195-2.336-1.152-2.7-1.285-.363-.133-.63-.195-.895.195-.266.395-1.027 1.285-1.258 1.547-.234.262-.461.293-.855.098-.395-.195-1.668-.613-3.176-1.957-1.176-1.05-1.973-2.35-2.207-2.746-.23-.395-.023-.609.172-.805.176-.176.395-.461.594-.691.195-.23.266-.395.395-.656.133-.262.066-.492-.031-.691-.098-.195-.895-2.16-1.227-2.957-.324-.777-.656-.672-.895-.684l-.766-.012c-.262 0-.691.098-1.055.492-.363.395-1.383 1.352-1.383 3.297 0 1.945 1.414 3.824 1.609 4.09.195.262 2.785 4.25 6.75 5.957.941.406 1.676.648 2.25.832.945.3 1.805.258 2.484.156.758-.113 2.336-.957 2.668-1.883.332-.926.332-1.723.234-1.883-.098-.156-.363-.262-.758-.457z"/>
</svg>
